<svg width="92" height="25" viewBox="0 0 92 25" fill="none" xmlns="http://www.w3.org/2000/svg">
<path d="M10.95 24.03C8.91 24.03 7.05 23.55 5.37 22.59C3.71 21.61 2.4 20.29 1.44 18.63C0.48 16.97 0 15.15 0 13.17C0 11.17 0.46 9.34 1.38 7.68C2.32 6 3.62 4.68 5.28 3.72C6.94 2.74 8.83 2.25 10.95 2.25C12.65 2.25 14.11 2.52 15.33 3.06C16.57 3.58 17.67 4.41 18.63 5.55L15.66 8.13C14.4 6.81 12.83 6.15 10.95 6.15C9.63 6.15 8.47 6.47 7.47 7.11C6.47 7.73 5.7 8.58 5.16 9.66C4.62 10.72 4.35 11.89 4.35 13.17C4.35 14.45 4.62 15.62 5.16 16.68C5.72 17.74 6.5 18.58 7.5 19.2C8.52 19.82 9.7 20.13 11.04 20.13C13 20.13 14.6 19.45 15.84 18.09L18.9 20.7C18.06 21.72 16.96 22.53 15.6 23.13C14.26 23.73 12.71 24.03 10.95 24.03Z" fill="url(#paint0_linear_426_483)"/>
<path d="M26.9403 23.9018C25.5256 23.9018 24.2542 23.5795 23.1261 22.9348C21.998 22.2723 21.1116 21.3859 20.467 20.2757C19.8223 19.1476 19.5 17.9209 19.5 16.5958C19.5 15.2707 19.8223 14.0441 20.467 12.916C21.1116 11.7879 21.998 10.9015 23.1261 10.2568C24.2542 9.5943 25.5256 9.26302 26.9403 9.26302C28.3549 9.26302 29.6263 9.5943 30.7544 10.2568C31.8825 10.9015 32.7689 11.7879 33.4135 12.916C34.0582 14.0441 34.3805 15.2707 34.3805 16.5958C34.3805 17.9209 34.0582 19.1476 33.4135 20.2757C32.7689 21.3859 31.8825 22.2723 30.7544 22.9348C29.6263 23.5795 28.3549 23.9018 26.9403 23.9018ZM23.1261 16.5958C23.1261 17.33 23.2783 18.0015 23.5827 18.6103C23.9051 19.2192 24.3527 19.7027 24.9257 20.0608C25.5167 20.4189 26.1882 20.598 26.9403 20.598C27.6923 20.598 28.3549 20.4189 28.9279 20.0608C29.5188 19.7027 29.9665 19.2192 30.2709 18.6103C30.5932 18.0015 30.7544 17.33 30.7544 16.5958C30.7544 15.8617 30.5932 15.1902 30.2709 14.5813C29.9486 13.9725 29.5009 13.489 28.9279 13.1309C28.3549 12.7548 27.6923 12.5668 26.9403 12.5668C26.1882 12.5668 25.5256 12.7548 24.9526 13.1309C24.3796 13.489 23.9319 13.9725 23.6096 14.5813C23.2873 15.1902 23.1261 15.8617 23.1261 16.5958Z" fill="#292929"/>
<path d="M35.9854 9.58534H39.5041V12.2445C39.7548 11.2238 40.2383 10.4538 40.9545 9.93453C41.6887 9.41523 42.6467 9.1914 43.8286 9.26302V12.6743H43.3182C42.2438 12.6743 41.3574 13.0145 40.6591 13.6949C39.9607 14.3575 39.6115 15.2618 39.6115 16.4078V23.5526H35.9854V9.58534Z" fill="#292929"/>
<path d="M50.7188 23.9018C49.4653 23.9018 48.3104 23.5795 47.2539 22.9348C46.1974 22.2723 45.3557 21.3859 44.729 20.2757C44.1202 19.1655 43.8158 17.9478 43.8158 16.6227C43.8158 15.2976 44.1202 14.0799 44.729 12.9697C45.3557 11.8416 46.1974 10.9463 47.2539 10.2837C48.3104 9.62116 49.4653 9.28988 50.7188 9.28988C51.8648 9.28988 52.787 9.50476 53.4854 9.93453C54.2017 10.3643 54.7568 10.9821 55.1507 11.7879V9.58534H58.75V23.5526H55.2313V21.2695C54.8195 22.1111 54.2554 22.7647 53.5391 23.2303C52.8408 23.678 51.9007 23.9018 50.7188 23.9018ZM47.4419 16.5958C47.4419 17.3121 47.603 17.9836 47.9254 18.6103C48.2656 19.2192 48.7222 19.7116 49.2952 20.0877C49.8862 20.4458 50.5577 20.6249 51.3097 20.6249C52.0797 20.6249 52.7602 20.4458 53.3511 20.0877C53.9599 19.7295 54.4255 19.246 54.7478 18.6372C55.0702 18.0284 55.2313 17.3569 55.2313 16.6227C55.2313 15.8885 55.0702 15.217 54.7478 14.6082C54.4255 13.9815 53.9599 13.489 53.3511 13.1309C52.7602 12.7548 52.0797 12.5668 51.3097 12.5668C50.5577 12.5668 49.8862 12.7548 49.2952 13.1309C48.7043 13.489 48.2477 13.9725 47.9254 14.5813C47.603 15.1902 47.4419 15.8617 47.4419 16.5958Z" fill="#292929"/>
<circle cx="10.75" cy="13" r="3.5" fill="url(#paint1_linear_426_483)"/>
<path d="M71.33 3H74.96L83.51 24H78.95L77.51 20.01H68.75L67.31 24H62.75L71.33 3ZM76.13 16.38L73.88 10.65C73.54 9.77 73.29 8.97 73.13 8.25C72.87 9.25 72.62 10.05 72.38 10.65L70.13 16.38H76.13Z" fill="#292929"/>
<path d="M84.1489 8.4H88.1989V24H84.1489V8.4Z" fill="#292929"/>
<path d="M89.7974 1.21483C89.8454 1.19539 89.8834 1.15737 89.9028 1.10943L90.1753 0.437243C90.2399 0.278028 90.4653 0.278028 90.5298 0.437243L90.8024 1.10943C90.8218 1.15737 90.8598 1.19539 90.9078 1.21483L91.5799 1.48734C91.7392 1.55188 91.7392 1.77731 91.5799 1.84186L90.9078 2.11437C90.8598 2.1338 90.8218 2.17182 90.8024 2.21976L90.5298 2.89195C90.4653 3.05116 90.2399 3.05116 90.1753 2.89195L89.9028 2.21976C89.8834 2.17182 89.8454 2.1338 89.7974 2.11437L89.1252 1.84186C88.966 1.77731 88.966 1.55188 89.1252 1.48734L89.7974 1.21483Z" fill="url(#paint2_linear_426_483)"/>
<path d="M86.5529 3.70278C86.6769 3.65253 86.7752 3.55421 86.8255 3.43024L87.3951 2.02502C87.562 1.61333 88.145 1.61333 88.3119 2.02502L88.8815 3.43024C88.9318 3.55421 89.0301 3.65253 89.1541 3.70278L90.5593 4.27247C90.971 4.43937 90.971 5.02227 90.5593 5.18918L89.1541 5.75886C89.0301 5.80912 88.9318 5.90744 88.8815 6.0314L88.3119 7.43662C88.145 7.84832 87.562 7.84832 87.3951 7.43662L86.8255 6.0314C86.7752 5.90744 86.6769 5.80912 86.5529 5.75886L85.1477 5.18918C84.736 5.02227 84.736 4.43937 85.1477 4.27247L86.5529 3.70278Z" fill="url(#paint3_linear_426_483)"/>
<defs>
<linearGradient id="paint0_linear_426_483" x1="4.63869" y1="5.63995" x2="-2.94836" y2="9.14021" gradientUnits="userSpaceOnUse">
<stop stop-color="#B8AAFE"/>
<stop offset="1" stop-color="#2380FC"/>
</linearGradient>
<linearGradient id="paint1_linear_426_483" x1="13.6773" y1="12.4068" x2="7.76736" y2="13.0203" gradientUnits="userSpaceOnUse">
<stop stop-color="#B8AAFE"/>
<stop offset="1" stop-color="#2380FC"/>
</linearGradient>
<linearGradient id="paint2_linear_426_483" x1="91.7448" y1="1.38246" x2="88.934" y2="1.67425" gradientUnits="userSpaceOnUse">
<stop stop-color="#B8AAFE"/>
<stop offset="1" stop-color="#2380FC"/>
</linearGradient>
<linearGradient id="paint3_linear_426_483" x1="91.0621" y1="4.08058" x2="84.5842" y2="4.75307" gradientUnits="userSpaceOnUse">
<stop stop-color="#B8AAFE"/>
<stop offset="1" stop-color="#2380FC"/>
</linearGradient>
</defs>
</svg>
